<svg width="40" height="40" viewBox="0 0 40 40" fill="none" xmlns="http://www.w3.org/2000/svg">
<path opacity="0.2" d="M20 1.55566C20.8318 1.55569 21.6191 1.89607 22.5078 2.47461C23.1289 2.87895 23.6658 3.12241 24.2656 3.25684C24.8723 3.39275 25.5722 3.42329 26.5293 3.36328C27.4981 3.30254 28.2792 3.39153 28.9746 3.83008C29.6514 4.25705 30.1777 4.97292 30.749 5.9834C31.2447 6.86013 32.2939 7.75834 33.4658 8.25977C34.3804 8.65119 35.0563 9.05888 35.5059 9.66309C35.9592 10.2725 36.1319 11.0131 36.2002 11.9521C36.2696 12.9063 36.4004 13.6202 36.6299 14.2461C36.8581 14.8684 37.1931 15.429 37.7012 16.0645C38.3185 16.8364 38.7084 17.54 38.793 18.333C38.877 19.1212 38.6507 19.9165 38.2207 20.8525C37.5681 22.2736 37.4471 23.3468 37.7695 24.9062C37.965 25.8511 37.9766 26.6573 37.6855 27.3965C37.3953 28.1334 36.8333 28.7309 36.0381 29.3184C35.4016 29.7885 34.9606 30.2274 34.6084 30.7637C34.2528 31.3051 33.9707 31.9707 33.6855 32.918C33.4329 33.7575 33.0774 34.4157 32.499 34.8994C31.926 35.3786 31.1884 35.6414 30.2627 35.8008C29.4409 35.9423 28.8217 36.1323 28.2725 36.4219C27.7235 36.7114 27.2184 37.114 26.6396 37.7109C25.9452 38.427 25.2902 38.9068 24.5146 39.0908C23.7414 39.2743 22.9292 39.1448 21.9629 38.8252C20.5368 38.354 19.4706 38.3516 18.0518 38.8174V38.8184C17.0844 39.1358 16.4498 39.2436 15.7627 39.1367L15.4639 39.0781C14.7119 38.8999 14.1139 38.48 13.3613 37.708C12.7799 37.1115 12.2729 36.71 11.7236 36.4209C11.1745 36.1319 10.5572 35.9419 9.7373 35.8008C8.81141 35.6414 8.07311 35.3788 7.5 34.8994C6.92179 34.4157 6.56705 33.7573 6.31445 32.918C6.02936 31.9707 5.74721 31.3051 5.3916 30.7637C5.03938 30.2274 4.59841 29.7885 3.96191 29.3184C3.16664 28.7309 2.60472 28.1334 2.31445 27.3965C2.02335 26.6572 2.03412 25.8511 2.22949 24.9062C2.55198 23.3467 2.43216 22.2736 1.7793 20.8525C1.34963 19.9173 1.12348 19.1229 1.20703 18.335C1.29114 17.5425 1.67925 16.8385 2.29492 16.0654C2.81927 15.4071 3.14251 14.8873 3.3584 14.3164C3.57564 13.742 3.69583 13.0856 3.77539 12.1377C3.85983 11.1314 4.04637 10.3397 4.47461 9.70801C4.9092 9.06715 5.54784 8.65521 6.39355 8.3125C7.64352 7.80603 8.69325 6.93285 9.2627 5.96387C9.62412 5.34889 9.84863 4.97384 10.0439 4.71289C10.2579 4.42708 10.439 4.27427 10.6875 4.08887C11.0907 3.78803 11.4813 3.57762 11.9414 3.45996C12.394 3.34428 12.8828 3.32642 13.4707 3.36328C14.4278 3.42329 15.1277 3.39274 15.7344 3.25684C16.334 3.12243 16.8704 2.87873 17.4912 2.47461C18.38 1.89601 19.1681 1.55566 20 1.55566Z" fill="black" stroke="black"/>
<path d="M15.5792 38.2253C14.961 38.0784 14.4435 37.7356 13.7194 36.9928C12.5098 35.7522 11.5282 35.2353 9.82216 34.9419C8.05231 34.6372 7.26581 33.9791 6.79297 32.4081C6.20931 30.4684 5.59928 29.5396 4.25891 28.5496C2.73841 27.4265 2.34829 26.4361 2.71941 24.6414C3.06315 22.979 2.93152 21.7972 2.2334 20.2777C1.40045 18.4646 1.50328 17.4958 2.68631 16.0105C3.77087 14.6487 4.11128 13.7486 4.27372 11.8131C4.43762 9.85981 4.98106 9.05847 6.5815 8.40997C7.91722 7.86872 9.05991 6.92916 9.69341 5.85119C10.426 4.60466 10.5329 4.46175 10.9868 4.12313C11.7193 3.57663 12.3115 3.42519 13.4394 3.49591C15.3986 3.61875 16.4487 3.38353 17.7644 2.52702C19.4798 1.41027 20.52 1.41027 22.2354 2.52702C23.5511 3.38353 24.6012 3.61875 26.5604 3.49591C28.4131 3.37972 29.1841 3.86609 30.3134 5.86362C30.873 6.85356 32.0169 7.81697 33.2691 8.35278C35.0522 9.11591 35.5703 9.81244 35.7019 11.6225C35.8444 13.5828 36.2463 14.6788 37.3109 16.0105C38.4966 17.4932 38.6 18.4629 37.7663 20.2777C37.0684 21.7972 36.9366 22.979 37.2803 24.6414C37.6516 26.4361 37.2612 27.4265 35.7409 28.5496C34.4006 29.5396 33.7906 30.4684 33.2069 32.4081C32.7341 33.9791 31.9475 34.6372 30.1777 34.9419C28.4679 35.2359 27.4852 35.7544 26.2804 36.9969C24.9448 38.3744 23.9873 38.6016 22.1201 37.9844C20.5928 37.4794 19.417 37.4772 17.8959 37.9766C16.8303 38.3263 16.2624 38.3872 15.5792 38.2253Z" fill="white"/>
<path d="M26.5642 18.4467C26.4489 18.2114 26.5477 17.929 26.783 17.8137C27.0184 17.6984 27.3007 17.7972 27.416 18.0325C27.5314 18.2679 27.4325 18.5503 27.1972 18.6656C26.9619 18.7809 26.6795 18.682 26.5642 18.4467ZM28.8539 23.1531C28.7385 22.9178 28.8374 22.6354 29.0727 22.5201C29.308 22.4048 29.5904 22.5036 29.7057 22.7389C29.821 22.9742 29.7222 23.2566 29.4869 23.3719C29.2515 23.4872 28.9691 23.3884 28.8539 23.1531ZM29.0539 17.0466C27.5478 15.9712 25.5829 15.6935 23.7639 16.3971L28.7362 26.6217C30.4116 25.6263 31.4048 23.9061 31.4895 22.0589L33.3767 22.193C33.4848 22.2 33.5792 22.12 33.586 22.0094C33.5932 21.9012 33.5132 21.807 33.4026 21.8L31.4917 21.6635C31.4729 20.8587 31.2801 20.0375 30.8964 19.2468C30.5128 18.4585 29.9857 17.7996 29.3645 17.2866L30.4375 15.6982C30.4987 15.6088 30.4752 15.4864 30.3858 15.4252C30.2964 15.364 30.174 15.3876 30.1128 15.477L29.0539 17.0442" fill="#3DDC84"/>
<path d="M24.4698 20.8963C23.0673 21.5741 21.5589 21.9176 19.987 21.9176C16.4454 21.9176 13.2286 20.1198 11.3532 17.2583C11.2049 17.0324 10.899 16.9783 10.6802 17.1383L8.87525 18.4679C8.67053 18.6185 8.62347 18.9056 8.767 19.1173C11.2308 22.7954 15.403 25.0991 19.987 25.0991C22.0413 25.0991 24.0156 24.6496 25.8534 23.7625L24.4698 20.8963Z" fill="#4285F4"/>
<path d="M19.9705 9.58463H20.9471V7.42676C20.9471 6.88788 20.5094 6.4502 19.9705 6.4502C19.4316 6.4502 18.9939 6.88788 18.9939 7.42676V9.58463H19.9705Z" fill="#4285F4"/>
<path d="M17.4289 13.7968L10.7153 27.6147C10.5694 27.9136 10.4918 28.2383 10.4847 28.5701L10.4447 30.3797C10.4353 30.848 10.9765 31.1115 11.3389 30.815L12.7367 29.6667C12.9932 29.4573 13.2003 29.1937 13.3462 28.8948L19.9633 15.2723L17.4313 13.7992L17.4289 13.7968Z" fill="#4285F4"/>
<path d="M29.4584 28.5677C29.4514 28.2359 29.3714 27.9112 29.2278 27.6123L22.5142 13.7945L19.9822 15.2723L26.5993 28.8901C26.7452 29.189 26.9523 29.4502 27.2088 29.662L28.6066 30.8103C28.969 31.1068 29.5126 30.8432 29.5008 30.375L29.4608 28.5654L29.4584 28.5677Z" fill="#4285F4"/>
<path d="M19.9705 9.41284C18.3538 9.41284 17.0408 10.7283 17.0408 12.3426C17.0408 13.9568 18.3562 15.2723 19.9705 15.2723C21.5847 15.2723 22.9002 13.9568 22.9002 12.3426C22.9002 10.7283 21.5847 9.41284 19.9705 9.41284ZM19.9705 13.9545C19.0833 13.9545 18.3586 13.2321 18.3586 12.3426C18.3586 11.4531 19.081 10.7306 19.9705 10.7306C20.86 10.7306 21.5824 11.4531 21.5824 12.3426C21.5824 13.2321 20.86 13.9545 19.9705 13.9545Z" fill="#073042"/>
</svg>
