<svg width="48" height="48" viewBox="0 0 48 48" fill="none" xmlns="http://www.w3.org/2000/svg">
<g clip-path="url(#clip0_270_48)" filter="url(#filter0_d_270_48)">
<path d="M35.5127 8.88768C36.2655 8.56501 36.8033 8.45751 37.341 8.56501C38.2015 8.78018 38.6317 9.42551 38.9543 9.74801C39.277 10.3933 40.46 11.0387 40.9978 11.1462C41.428 11.2537 42.1808 10.0707 42.7187 8.99518C43.2565 8.02718 43.5792 6.73652 43.4715 6.41385C43.364 6.09118 41.8582 5.44585 41.5355 5.44585C41.3203 5.44585 40.8902 5.66102 40.1373 5.55335C39.3845 5.44585 38.6317 4.58535 38.2013 3.94002C37.4485 2.86452 36.373 2.21918 35.405 1.68135C34.3295 1.14352 33.1463 0.820849 31.9633 0.605849C30.2425 0.175682 28.5217 -0.146985 26.8008 0.0680154C25.8328 0.175515 24.6498 0.283182 23.7893 0.605849C23.6818 0.605849 23.4667 0.928515 23.6818 0.928515C23.897 0.928515 24.6498 1.03602 24.6498 1.03602C24.6498 1.03602 23.682 1.25135 23.682 1.46652C23.682 1.68168 23.7895 1.68168 23.8972 1.68168C24.0047 1.68168 26.3708 1.57418 27.3388 1.68168C28.4143 1.89685 29.5975 2.43452 30.3503 3.72518C31.641 6.09135 31.1032 8.35001 30.7805 9.10285C29.1672 12.652 16.3685 34.4852 15.7232 35.9908C15.0777 37.4965 14.8627 38.4645 16.691 39.4325C18.5193 40.4005 19.4873 39.9703 20.0252 39.325C20.6705 38.4645 31.7483 10.716 35.5127 8.88768ZM29.4897 23.4072H32.071C33.7918 23.4072 34.1145 24.2677 34.1145 24.5902C34.222 25.4507 33.7918 26.5262 32.071 26.5262H30.4577L31.7483 28.6772C32.5012 29.9678 32.1785 30.6132 31.7483 31.0433C31.103 31.6887 29.7048 31.6887 28.952 30.2905L27.4463 27.7092C26.3708 30.0753 25.2953 32.6565 24.0047 35.668H30.6728C33.8993 35.668 36.5882 32.9792 36.5882 29.7527V10.9312C36.4807 10.716 36.2655 10.8237 36.158 10.9312C35.5127 11.684 33.6843 14.2652 29.4897 23.4072ZM13.1418 36.7437H12.604C8.73217 36.7437 5.61317 33.6247 5.61317 29.7528V11.684C5.61317 7.81218 8.73217 4.69318 12.604 4.69318H28.1992C27.8765 4.37051 26.5858 3.83268 25.2953 3.94035C24.7575 3.94035 23.682 4.15552 23.0367 3.72518C22.3913 3.18735 22.4988 2.86468 21.531 2.86468H11.9588C7.54917 2.86468 4 6.41385 4 10.8235V30.398C4 34.8077 7.54917 38.3568 11.4212 38.2493C12.4965 38.2493 12.8192 37.389 13.1418 36.7437ZM37.7713 11.5763V29.7527C37.7713 33.6245 34.6523 36.7435 30.7805 36.7435H23.5743C23.5743 36.7435 22.929 38.4643 24.9725 38.4643H31.4257C35.8353 38.4643 39.3845 34.9152 39.3845 30.5055V14.6953C39.4922 13.1897 38.2015 12.2217 37.7713 11.5763ZM6.79617 11.684V29.7528C6.79617 32.9793 9.485 35.6682 12.7115 35.6682H13.6795C13.6795 35.5607 14.9702 33.302 17.7665 28.5697C18.0892 27.9243 18.5193 27.279 18.9495 26.5262H11.0983C10.1303 26.5262 9.59267 25.8808 9.485 25.3432C9.26983 24.4827 9.80767 23.4072 10.9907 23.4072H14.9702L20.0252 14.5878C20.0252 14.5878 18.8422 12.4368 18.5195 11.899C18.0892 11.1462 18.3043 10.3933 18.7345 9.96318C19.3798 9.31785 20.4553 8.99518 21.5308 10.716L21.961 11.3613L22.3912 10.716C23.3592 9.31785 24.0045 9.42535 24.5422 9.53302C25.4027 9.74818 25.9403 10.716 25.1875 12.2218L18.5193 23.4072H20.778C21.5308 22.1165 22.2837 20.8258 23.0367 19.4277C22.9292 18.8898 22.8215 18.2447 22.9292 17.7068C23.0367 16.8463 23.467 16.0935 24.0047 15.4482L24.65 16.5237C26.6935 12.9745 28.1992 9.96301 28.6295 8.77985C28.8447 8.13451 29.1673 6.84385 28.8447 5.76835H12.7117C9.3775 5.76852 6.79617 8.45735 6.79617 11.684ZM11.421 29.6452C11.421 29.5377 12.7117 27.279 12.7117 27.279C14.7552 26.7412 15.7232 28.0318 15.8307 28.1395C15.8307 28.1395 14.4325 30.6132 14.0023 31.0433C13.5722 31.4735 13.0343 31.5812 12.4967 31.4735C11.636 31.2585 11.0983 30.398 11.421 29.6452Z" fill="#147EFB"/>
</g>
<defs>
<filter id="filter0_d_270_48" x="-0.253906" y="0" width="48" height="48" filterUnits="userSpaceOnUse" color-interpolation-filters="sRGB">
<feFlood flood-opacity="0" result="BackgroundImageFix"/>
<feColorMatrix in="SourceAlpha" type="matrix" values="0 0 0 0 0 0 0 0 0 0 0 0 0 0 0 0 0 0 127 0" result="hardAlpha"/>
<feOffset dy="4"/>
<feGaussianBlur stdDeviation="2"/>
<feComposite in2="hardAlpha" operator="out"/>
<feColorMatrix type="matrix" values="0 0 0 0 0 0 0 0 0 0 0 0 0 0 0 0 0 0 0.25 0"/>
<feBlend mode="normal" in2="BackgroundImageFix" result="effect1_dropShadow_270_48"/>
<feBlend mode="normal" in="SourceGraphic" in2="effect1_dropShadow_270_48" result="shape"/>
</filter>
<clipPath id="clip0_270_48">
<rect width="40" height="40" fill="white" transform="translate(3.74609)"/>
</clipPath>
</defs>
</svg>
