<svg width="40" height="40" viewBox="0 0 40 40" fill="none" xmlns="http://www.w3.org/2000/svg">
<g clip-path="url(#clip0_270_45)">
<path d="M12.5133 0C12.035 0 11.5583 0 11.08 0.00333333C10.6783 0.00666667 10.275 0.00833333 9.87333 0.02C9.65333 0.025 9.435 0.035 9.215 0.045C8.55514 0.0706636 7.89765 0.139141 7.24667 0.25C6.37908 0.403409 5.53818 0.681276 4.75 1.075C3.16782 1.87984 1.88127 3.16521 1.075 4.74667C0.666667 5.54667 0.408333 6.36667 0.25 7.24667C0.095 8.11333 0.0466667 8.99667 0.0233333 9.87333C0.0125297 10.2755 0.00586266 10.6777 0.00333333 11.08C0 11.5583 0 12.035 0 12.5133V27.4867C0 27.965 0 28.445 0.00333333 28.9233C0.00666667 29.3233 0.0116667 29.725 0.0233333 30.1267C0.0466667 31.0033 0.095 31.8883 0.25 32.7533C0.408333 33.6333 0.666667 34.4533 1.075 35.2533C1.88033 36.8355 3.16713 38.1211 4.75 38.925C5.55 39.3317 6.36667 39.5917 7.24667 39.75C8.11333 39.905 8.99667 39.9567 9.87333 39.98C10.275 39.9917 10.6783 39.995 11.08 39.9967C11.5583 40 12.035 40 12.5133 40H27.4867C27.965 40 28.4417 40 28.92 39.9967C29.3217 39.995 29.725 39.9917 30.1267 39.98C31.0079 39.9695 31.887 39.8926 32.7567 39.75C33.6253 39.6006 34.4667 39.3225 35.2533 38.925C36.8346 38.1201 38.1201 36.8346 38.925 35.2533C39.3333 34.4533 39.5917 33.6333 39.75 32.7533C39.905 31.8867 39.9567 31.0033 39.98 30.1267C39.9917 29.725 39.995 29.325 39.9967 28.9233C40 28.445 40 27.965 40 27.4867V12.5133C40 12.035 40 11.5583 39.9967 11.08C39.9954 10.6777 39.9899 10.2755 39.98 9.87333C39.9695 8.99324 39.8926 8.11519 39.75 7.24667C39.6007 6.37697 39.3227 5.53438 38.925 4.74667C38.1197 3.16565 36.8343 1.88031 35.2533 1.075C34.4667 0.677443 33.6253 0.399386 32.7567 0.25C31.887 0.107178 31.0079 0.0302919 30.1267 0.02C29.7256 0.0103045 29.3245 0.00474869 28.9233 0.00333333C28.445 0 27.965 0 27.4867 0H12.5133ZM22.5717 5.68333C29.4283 9.8 33.48 17.62 31.82 24.235C31.78 24.39 31.7367 24.5367 31.6933 24.6883L31.6967 24.69C35.1333 28.92 34.1967 33.4533 33.7567 32.5983C31.97 29.1217 28.6467 29.985 26.9433 30.86C26.7893 30.9515 26.6332 31.0393 26.475 31.1233L26.4417 31.1433L26.4383 31.1467C22.9133 33.0183 18.1767 33.155 13.4183 31.11C9.54389 29.4311 6.26732 26.6205 4.01833 23.0467C5.1 23.8467 6.26833 24.55 7.51333 25.1333C12.545 27.49 17.5983 27.3183 21.175 25.13C16.085 21.2167 11.835 16.1167 8.57667 11.985C7.95727 11.2624 7.39712 10.491 6.90167 9.67833C10.8017 13.2483 16.965 17.7283 19.1767 18.9717C14.4833 14.0133 10.3467 7.905 10.54 8.1C17.9333 15.55 24.7533 19.76 24.7533 19.76C25.01 19.9017 25.2033 20.0167 25.3533 20.115C25.495 19.7567 25.62 19.3867 25.7267 19.0017C26.9067 14.6883 25.5767 9.755 22.5717 5.68167V5.68333Z" fill="#F05138"/>
</g>
<defs>
<clipPath id="clip0_270_45">
<rect width="40" height="40" fill="white"/>
</clipPath>
</defs>
</svg>
