<svg width="40" height="40" viewBox="0 0 40 40" fill="none" xmlns="http://www.w3.org/2000/svg">
<path d="M27.6534 15.327C27.6534 15.327 27.0634 9.83033 21.6084 9.677C16.1516 9.527 13.3498 13.8003 13.3498 19.9103C13.3498 26.0188 16.4464 30.9057 21.7583 30.9057C27.0649 30.9057 27.6551 24.7973 27.6551 24.7973L37.8286 25.4057C37.8286 25.4057 38.4286 30.9223 34.1686 35.1323C29.9153 39.3392 24.6851 40.0275 21.0416 39.9992C17.3916 39.9708 12.3314 40.0558 7.44127 35.0492C2.5446 30.0323 1.7146 25.1655 1.7146 20.3822C1.7146 15.5987 2.64127 9.26517 8.4596 4.46517C12.4066 1.2 16.4149 0 20.4233 0C37.1603 0 38.2853 15.4337 38.2853 15.4337L27.6534 15.327Z" fill="#A8B9CC"/>
</svg>
