<svg width="40" height="40" viewBox="0 0 40 40" fill="none" xmlns="http://www.w3.org/2000/svg">
<path d="M21.548 7.1565L27.8808 10.8113C28.1085 10.9397 28.1166 11.2955 27.8808 11.4238L20.3558 15.7698C20.2485 15.8328 20.1264 15.8661 20.002 15.8661C19.8776 15.8661 19.7554 15.8328 19.6481 15.7698L12.1233 11.4238C11.8916 11.2997 11.8875 10.9355 12.1233 10.8113L18.452 7.15633V0L2.29297 9.3295V27.9883L8.48914 24.4123V17.1027C8.48497 16.8418 8.7913 16.6557 9.01913 16.7963L16.5438 21.1423C16.6517 21.2042 16.7414 21.2934 16.8039 21.401C16.8664 21.5085 16.8994 21.6306 16.8998 21.755V30.4428C16.904 30.7037 16.5976 30.8898 16.37 30.7492L10.0373 27.0943L3.84097 30.6705L20 40L36.159 30.6705L29.9626 27.0943L23.63 30.7492C23.4065 30.8858 23.0918 30.7078 23.1001 30.4428V21.755C23.1001 21.4942 23.2451 21.2623 23.4561 21.1423L30.981 16.7963C31.2043 16.6597 31.519 16.8337 31.5108 17.1027V24.4123L37.707 27.9883V9.3295L21.548 0V7.1565Z" fill="black"/>
</svg>
