<svg width="40" height="40" viewBox="0 0 40 40" fill="none" xmlns="http://www.w3.org/2000/svg">
<g clip-path="url(#clip0_270_42)">
<path d="M37.3233 10.0002C37.0449 9.51683 36.6599 9.09516 36.2366 8.85016L21.5433 0.366829C20.6949 -0.123171 19.3099 -0.123171 18.4633 0.366829L3.7666 8.85016C2.91994 9.3385 2.22827 10.5385 2.22827 11.5168V28.4835C2.22827 28.9735 2.4016 29.5168 2.67994 30.0002C2.95827 30.4835 3.34327 30.9052 3.7666 31.1502L18.4599 39.6335C19.3066 40.1218 20.6933 40.1218 21.5399 39.6335L36.2333 31.1502C36.6566 30.9052 37.0416 30.4835 37.3199 30.0002C37.5983 29.5168 37.7699 28.9735 37.7699 28.4835V11.5168C37.7749 11.0268 37.6033 10.4835 37.3233 10.0002ZM19.9999 31.8502C13.4666 31.8502 8.1516 26.5335 8.1516 20.0002C8.1516 13.4668 13.4683 8.15016 20.0016 8.15016C22.0802 8.15411 24.1214 8.70298 25.9217 9.74203C27.722 10.7811 29.2184 12.274 30.2616 14.0718L25.1349 17.0385C24.6137 16.1381 23.8653 15.3902 22.9645 14.8696C22.0637 14.349 21.042 14.0739 20.0016 14.0718C18.4297 14.0732 16.9226 14.6982 15.8111 15.8097C14.6996 16.9212 14.0746 18.4283 14.0733 20.0002C14.0755 21.5712 14.7007 23.0772 15.8117 24.1879C16.9227 25.2986 18.4289 25.9234 19.9999 25.9252C21.0399 25.9229 22.0612 25.6481 22.9619 25.1282C23.8626 24.6083 24.6112 23.8613 25.1333 22.9618L30.2633 25.9285C29.2195 27.7266 27.7225 29.2196 25.9217 30.2587C24.1208 31.2977 22.079 31.8465 19.9999 31.8502ZM31.8499 20.6585H30.5333V21.9752H29.2166V20.6585H27.8999V19.3418H29.2166V18.0252H30.5333V19.3418H31.8499V20.6585ZM36.7866 20.6585H35.4699V21.9752H34.1533V20.6585H32.8366V19.3418H34.1533V18.0252H35.4699V19.3418H36.7866V20.6585Z" fill="#00599C"/>
</g>
<defs>
<clipPath id="clip0_270_42">
<rect width="40" height="40" fill="white"/>
</clipPath>
</defs>
</svg>
