<svg width="40" height="40" viewBox="0 0 40 40" fill="none" xmlns="http://www.w3.org/2000/svg">
<g clip-path="url(#clip0_270_82)">
<mask id="mask0_270_82" style="mask-type:alpha" maskUnits="userSpaceOnUse" x="0" y="0" width="40" height="40">
<path fill-rule="evenodd" clip-rule="evenodd" d="M28.3648 39.7268C28.9948 39.9723 29.7131 39.9566 30.349 39.6506L38.5843 35.6879C39.4497 35.2715 40 34.3957 40 33.4349V6.56532C40 5.60452 39.4497 4.72872 38.5844 4.31232L30.349 0.349502C29.5145 -0.0520519 28.5378 0.0463037 27.8054 0.57878C27.7008 0.654844 27.6011 0.739772 27.5076 0.833364L11.742 15.2166L4.87488 10.0038C4.2356 9.5186 3.34145 9.55836 2.74773 10.0984L0.545212 12.102C-0.181021 12.7626 -0.181853 13.9051 0.543412 14.5668L6.49884 20L0.543412 25.4333C-0.181853 26.095 -0.181021 27.2375 0.545212 27.8981L2.74773 29.9016C3.34145 30.4417 4.2356 30.4815 4.87488 29.9962L11.742 24.7835L27.5076 39.1667C27.757 39.4162 28.0498 39.6042 28.3648 39.7268ZM30.0061 10.9196L18.0436 20L30.0061 29.0805V10.9196Z" fill="white"/>
</mask>
<g mask="url(#mask0_270_82)">
<path d="M38.5845 4.31849L30.3427 0.350223C29.3887 -0.109103 28.2486 0.0846506 27.4999 0.833338L0.51933 25.4333C-0.206379 26.0949 -0.205544 27.2375 0.52113 27.8981L2.72499 29.9016C3.31907 30.4417 4.21378 30.4814 4.85342 29.9962L37.3443 5.34797C38.4343 4.52105 39.9999 5.29849 39.9999 6.66669V6.57101C39.9999 5.61061 39.4497 4.73513 38.5845 4.31849Z" fill="#0065A9"/>
<g filter="url(#filter0_d_270_82)">
<path d="M38.5845 35.6815L30.3427 39.6498C29.3887 40.1092 28.2486 39.9154 27.4999 39.1667L0.51933 14.5668C-0.206379 13.9051 -0.205544 12.7625 0.52113 12.1019L2.72499 10.0984C3.31907 9.55831 4.21378 9.51855 4.85342 10.0038L37.3443 34.652C38.4343 35.479 39.9999 34.7015 39.9999 33.3334V33.429C39.9999 34.3894 39.4497 35.2649 38.5845 35.6815Z" fill="#007ACC"/>
</g>
<g filter="url(#filter1_d_270_82)">
<path d="M30.3431 39.6505C29.3888 40.1096 28.2488 39.9154 27.5 39.1666C28.4226 40.0892 30 39.4358 30 38.1311V1.86881C30 0.564114 28.4226 -0.0892849 27.5 0.833273C28.2488 0.0845182 29.3888 -0.109509 30.3431 0.349411L38.5835 4.31224C39.4494 4.72864 40 5.60444 40 6.56524V33.4348C40 34.3956 39.4494 35.2714 38.5834 35.6878L30.3431 39.6505Z" fill="#1F9CF0"/>
</g>
<g style="mix-blend-mode:overlay" opacity="0.25">
<path fill-rule="evenodd" clip-rule="evenodd" d="M28.3403 39.7268C28.9703 39.9722 29.6887 39.9565 30.3246 39.6506L38.5599 35.6879C39.4253 35.2715 39.9756 34.3957 39.9756 33.4348V6.56531C39.9756 5.60447 39.4253 4.72867 38.5599 4.31227L30.3246 0.349472C29.4901 -0.0520821 28.5134 0.0462735 27.781 0.578746C27.6764 0.654814 27.5767 0.739742 27.4832 0.833334L11.7176 15.2166L4.85046 10.0038C4.21122 9.51855 3.31704 9.55835 2.72332 10.0984L0.520799 12.1019C-0.205435 12.7626 -0.206267 13.9051 0.518999 14.5668L6.47442 20L0.518999 25.4333C-0.206267 26.095 -0.205435 27.2375 0.520799 27.8981L2.72332 29.9016C3.31704 30.4417 4.21122 30.4814 4.85046 29.9962L11.7176 24.7834L27.4832 39.1667C27.7326 39.4162 28.0254 39.6042 28.3403 39.7268ZM29.9817 10.9196L18.0192 20L29.9817 29.0805V10.9196Z" fill="url(#paint0_linear_270_82)"/>
</g>
</g>
</g>
<defs>
<filter id="filter0_d_270_82" x="-8.35775" y="1.33161" width="56.6911" height="46.8983" filterUnits="userSpaceOnUse" color-interpolation-filters="sRGB">
<feFlood flood-opacity="0" result="BackgroundImageFix"/>
<feColorMatrix in="SourceAlpha" type="matrix" values="0 0 0 0 0 0 0 0 0 0 0 0 0 0 0 0 0 0 127 0" result="hardAlpha"/>
<feOffset/>
<feGaussianBlur stdDeviation="4.16667"/>
<feColorMatrix type="matrix" values="0 0 0 0 0 0 0 0 0 0 0 0 0 0 0 0 0 0 0.25 0"/>
<feBlend mode="overlay" in2="BackgroundImageFix" result="effect1_dropShadow_270_82"/>
<feBlend mode="normal" in="SourceGraphic" in2="effect1_dropShadow_270_82" result="shape"/>
</filter>
<filter id="filter1_d_270_82" x="19.1667" y="-8.23028" width="29.1667" height="56.4605" filterUnits="userSpaceOnUse" color-interpolation-filters="sRGB">
<feFlood flood-opacity="0" result="BackgroundImageFix"/>
<feColorMatrix in="SourceAlpha" type="matrix" values="0 0 0 0 0 0 0 0 0 0 0 0 0 0 0 0 0 0 127 0" result="hardAlpha"/>
<feOffset/>
<feGaussianBlur stdDeviation="4.16667"/>
<feColorMatrix type="matrix" values="0 0 0 0 0 0 0 0 0 0 0 0 0 0 0 0 0 0 0.25 0"/>
<feBlend mode="overlay" in2="BackgroundImageFix" result="effect1_dropShadow_270_82"/>
<feBlend mode="normal" in="SourceGraphic" in2="effect1_dropShadow_270_82" result="shape"/>
</filter>
<linearGradient id="paint0_linear_270_82" x1="19.9756" y1="0.103119" x2="19.9756" y2="39.8969" gradientUnits="userSpaceOnUse">
<stop stop-color="white"/>
<stop offset="1" stop-color="white" stop-opacity="0"/>
</linearGradient>
<clipPath id="clip0_270_82">
<rect width="40" height="40" fill="white"/>
</clipPath>
</defs>
</svg>
